<svg width="32" height="31" viewBox="0 0 32 31" fill="none" xmlns="http://www.w3.org/2000/svg">
<g filter="url(#filter0_d)">
<path d="M6.66667 0.333374H2.66667C2.31304 0.333374 1.9739 0.473849 1.72386 0.723897C1.47381 0.973946 1.33333 1.31309 1.33333 1.66671V28.3334C1.33333 28.687 1.47381 29.0261 1.72386 29.2762C1.9739 29.5262 2.31304 29.6667 2.66667 29.6667H6.66667V0.333374Z" fill="#D6B1FF"/>
<path d="M9.33333 29.6667H22.6667V0.333374H9.33333V29.6667ZM16 24.3334C15.6464 24.3334 15.3072 24.1929 15.0572 23.9429C14.8071 23.6928 14.6667 23.3537 14.6667 23C14.6667 22.6464 14.8071 22.3073 15.0572 22.0572C15.3072 21.8072 15.6464 21.6667 16 21.6667C16.3536 21.6667 16.6928 21.8072 16.9428 22.0572C17.1929 22.3073 17.3333 22.6464 17.3333 23C17.3333 23.3537 17.1929 23.6928 16.9428 23.9429C16.6928 24.1929 16.3536 24.3334 16 24.3334ZM16 5.66671C16.3536 5.66671 16.6928 5.80718 16.9428 6.05723C17.1929 6.30728 17.3333 6.64642 17.3333 7.00004C17.3333 7.35366 17.1929 7.6928 16.9428 7.94285C16.6928 8.1929 16.3536 8.33337 16 8.33337C15.6464 8.33337 15.3072 8.1929 15.0572 7.94285C14.8071 7.6928 14.6667 7.35366 14.6667 7.00004C14.6667 6.64642 14.8071 6.30728 15.0572 6.05723C15.3072 5.80718 15.6464 5.66671 16 5.66671ZM16 13.6667C16.3536 13.6667 16.6928 13.8072 16.9428 14.0572C17.1929 14.3073 17.3333 14.6464 17.3333 15C17.3333 15.3537 17.1929 15.6928 16.9428 15.9429C16.6928 16.1929 16.3536 16.3334 16 16.3334C15.6464 16.3334 15.3072 16.1929 15.0572 15.9429C14.8071 15.6928 14.6667 15.3537 14.6667 15C14.6667 14.6464 14.8071 14.3073 15.0572 14.0572C15.3072 13.8072 15.6464 13.6667 16 13.6667Z" fill="#8C30F5"/>
<path d="M29.3333 0.333374H25.3333V29.6667H29.3333C29.687 29.6667 30.0261 29.5262 30.2761 29.2762C30.5262 29.0261 30.6667 28.687 30.6667 28.3334V1.66671C30.6667 1.31309 30.5262 0.973946 30.2761 0.723897C30.0261 0.473849 29.687 0.333374 29.3333 0.333374Z" fill="#2EC5CE"/>
</g>
<defs>
<filter id="filter0_d" x="-2.66667" y="0.333374" width="37.3333" height="37.3333" filterUnits="userSpaceOnUse" color-interpolation-filters="sRGB">
<feFlood flood-opacity="0" result="BackgroundImageFix"/>
<feColorMatrix in="SourceAlpha" type="matrix" values="0 0 0 0 0 0 0 0 0 0 0 0 0 0 0 0 0 0 127 0"/>
<feOffset dy="4"/>
<feGaussianBlur stdDeviation="2"/>
<feColorMatrix type="matrix" values="0 0 0 0 0 0 0 0 0 0 0 0 0 0 0 0 0 0 0.25 0"/>
<feBlend mode="normal" in2="BackgroundImageFix" result="effect1_dropShadow"/>
<feBlend mode="normal" in="SourceGraphic" in2="effect1_dropShadow" result="shape"/>
</filter>
</defs>
</svg>
