<svg width="30" height="30" viewBox="0 0 30 30" fill="none" xmlns="http://www.w3.org/2000/svg">
<path d="M11 12.3333H1.66668C1.31305 12.3333 0.973915 12.1929 0.723867 11.9428C0.473818 11.6928 0.333344 11.3536 0.333344 11V1.66668C0.333344 1.31305 0.473818 0.973915 0.723867 0.723867C0.973915 0.473818 1.31305 0.333344 1.66668 0.333344H11C11.3536 0.333344 11.6928 0.473818 11.9428 0.723867C12.1929 0.973915 12.3333 1.31305 12.3333 1.66668V11C12.3333 11.3536 12.1929 11.6928 11.9428 11.9428C11.6928 12.1929 11.3536 12.3333 11 12.3333Z" fill="#8C30F5"/>
<path d="M11 29.6667H1.66668C1.31305 29.6667 0.973915 29.5262 0.723867 29.2762C0.473818 29.0261 0.333344 28.687 0.333344 28.3334V19C0.333344 18.6464 0.473818 18.3073 0.723867 18.0572C0.973915 17.8072 1.31305 17.6667 1.66668 17.6667H11C11.3536 17.6667 11.6928 17.8072 11.9428 18.0572C12.1929 18.3073 12.3333 18.6464 12.3333 19V28.3334C12.3333 28.687 12.1929 29.0261 11.9428 29.2762C11.6928 29.5262 11.3536 29.6667 11 29.6667Z" fill="#8C30F5"/>
<path d="M16.3333 1.66669H29.6667V4.33335H16.3333V1.66669Z" fill="#2EC5CE"/>
<path d="M29.6667 19H16.3333V21.6667H29.6667V19Z" fill="#2EC5CE"/>
<path d="M29.6667 25.6667H16.3333V28.3334H29.6667V25.6667Z" fill="#D6B1FF"/>
<path d="M29.6667 8.33334H16.3333V11H29.6667V8.33334Z" fill="#D6B1FF"/>
</svg>
